<?xml version="1.0" encoding="UTF-8"?>
<svg version="1.1" xmlns="http://www.w3.org/2000/svg" width="1536" height="1024">
<path d="M0 0 C506.88 0 1013.76 0 1536 0 C1536 337.92 1536 675.84 1536 1024 C1029.12 1024 522.24 1024 0 1024 C0 686.08 0 348.16 0 0 Z " fill="#FEFAF6" transform="translate(0,0)"/>
<path d="M0 0 C1.04003174 0.37898438 1.04003174 0.37898438 2.10107422 0.765625 C36.64744339 13.59960508 64.38935846 39.43066436 79.86376953 72.93798828 C94.70634376 106.42577973 96.60125898 143.43557766 84 178 C83.75797852 178.67740234 83.51595703 179.35480469 83.26660156 180.05273438 C76.98736102 197.33074761 67.52708907 212.57158752 55 226 C54.53513184 226.50724609 54.07026367 227.01449219 53.59130859 227.53710938 C30.51226426 252.5242325 -3.67647575 269.65323341 -37.90161133 271.12475586 C-51.61044515 271.45805402 -64.67317428 271.40509203 -78 268 C-79.23234375 267.7215625 -80.4646875 267.443125 -81.734375 267.15625 C-106.58861412 261.17473187 -127.77599357 247.56827007 -146 230 C-146.96486328 229.11248047 -146.96486328 229.11248047 -147.94921875 228.20703125 C-171.01937979 206.42750859 -185.90190775 170.75295931 -187.10058594 139.36621094 C-188.23417881 98.17900317 -175.39807376 63.14406745 -147 33 C-146.40058594 32.33613281 -145.80117187 31.67226563 -145.18359375 30.98828125 C-109.20034769 -7.32649263 -48.19559273 -17.66662721 0 0 Z " fill="#3092FE" transform="translate(377,368)"/>
<path d="M0 0 C2.89884161 2.13024531 5.48075019 4.43655282 8 7 C8.99 7.99 8.99 7.99 10 9 C10.33 5.37 10.66 1.74 11 -2 C18.59 -2 26.18 -2 34 -2 C34.06800084 9.26651944 34.12294547 20.53290071 34.15543652 31.79957962 C34.17103708 37.0321546 34.19217203 42.26458088 34.22631836 47.49707031 C34.25911293 52.55454707 34.27689511 57.61188153 34.28463173 62.66945648 C34.29013937 64.59099311 34.30089363 66.51252269 34.31719017 68.43399811 C34.4456153 84.21575294 33.94654975 98.88195801 22.1875 110.84375 C9.60671716 121.11805599 -6.44991495 122.19465799 -22 121 C-31.11834366 119.37998971 -38.92264367 116.16282703 -44.74609375 108.7890625 C-47.92197684 104.20421448 -51 99.72520032 -51 94 C-47.62590441 93.79546849 -44.25341008 93.67198551 -40.875 93.5625 C-39.44800781 93.47452148 -39.44800781 93.47452148 -37.9921875 93.38476562 C-30.95387748 93.21369559 -30.95387748 93.21369559 -28.15722656 95.51904297 C-27.15446426 96.7578816 -26.18785516 98.02702896 -25.26318359 99.32519531 C-23.48810133 101.67870601 -21.83662588 102.33544457 -19 103 C-11.87010489 103.76676246 -4.36629973 103.59834332 2 100 C5.68643233 96.78020467 8.01007539 93.81601357 9 89 C9.06926968 86.24029592 9.0941736 83.50803958 9.0625 80.75 C9.05798828 80.00492188 9.05347656 79.25984375 9.04882812 78.4921875 C9.03709246 76.6614236 9.0191585 74.83070127 9 73 C8.41605469 73.79664063 8.41605469 73.79664063 7.8203125 74.609375 C3.30536079 80.31028177 -0.78908926 83.57396168 -8 85 C-20.22443417 86.19989124 -31.30200971 85.69300606 -41.15234375 77.72265625 C-50.21696772 69.27128379 -54.81764307 57.06001489 -55.3359375 44.79296875 C-55.64959924 25.30285578 -55.64959924 25.30285578 -51 17 C-50.56429688 16.20722656 -50.12859375 15.41445313 -49.6796875 14.59765625 C-44.41622196 5.95464316 -36.87442078 -0.4876045 -27.17578125 -3.58203125 C-17.88190835 -5.36738924 -8.34410037 -4.53340886 0 0 Z " fill="#364248" transform="translate(1151,470)"/>
<path d="M0 0 C7.47046328 5.27567389 11.45151259 11.39792527 13.17285156 20.33862305 C14.00431597 26.38441286 13.76248765 32.51314474 13.73828125 38.6015625 C13.7364134 39.95919238 13.73499123 41.31682294 13.73399353 42.67445374 C13.73019722 46.22703959 13.72039196 49.77958379 13.70928955 53.33215332 C13.69901301 56.96557044 13.6944826 60.59899437 13.68945312 64.23242188 C13.67876677 71.34637272 13.66119372 78.46028861 13.640625 85.57421875 C6.050625 85.57421875 -1.539375 85.57421875 -9.359375 85.57421875 C-9.689375 81.94421875 -10.019375 78.31421875 -10.359375 74.57421875 C-11.9990625 76.43046875 -11.9990625 76.43046875 -13.671875 78.32421875 C-20.72888734 85.25828662 -28.28643838 86.93929523 -37.921875 87.07421875 C-45.68125721 86.9652793 -52.38482438 86.06425272 -58.41015625 80.7734375 C-64.89527622 73.85866155 -67.01883226 67.29336304 -66.76953125 57.86328125 C-65.93597822 51.1789798 -63.04292936 45.82787467 -58.171875 41.19921875 C-44.43787195 30.78843272 -25.67720434 32.27602491 -9.359375 32.57421875 C-8.93958197 23.21813347 -8.93958197 23.21813347 -12.796875 15.26171875 C-18.58863054 11.44763584 -24.57498529 12.03393743 -31.359375 12.57421875 C-34.37245173 13.48196964 -35.10133634 14.19412395 -37.359375 16.57421875 C-38.349375 18.88421875 -39.339375 21.19421875 -40.359375 23.57421875 C-47.619375 23.57421875 -54.879375 23.57421875 -62.359375 23.57421875 C-62.359375 15.73771133 -60.95097262 10.66271216 -55.75 4.7421875 C-41.46756589 -8.19717368 -16.3255922 -9.86563105 0 0 Z " fill="#374249" transform="translate(743.359375,471.42578125)"/>
<path d="M0 0 C7.59 0 15.18 0 23 0 C23.33 14.85 23.66 29.7 24 45 C26.31 42.36 28.62 39.72 31 37 C39.42668665 30.46501852 48.74255842 29.93358068 59 31 C67.60852741 33.03654421 73.57103353 37.43540712 78.25 44.9375 C81.70662424 50.80075241 83.25321257 55.91152046 83.22705078 62.73974609 C83.22734283 63.38435791 83.22763489 64.02896973 83.22793579 64.69311523 C83.22655315 66.80336423 83.21104311 68.91325092 83.1953125 71.0234375 C83.19157856 72.49459643 83.18873339 73.96575785 83.18673706 75.43692017 C83.17913056 79.29371098 83.159508 83.15034921 83.1373291 87.00708008 C83.11680613 90.94870948 83.10772159 94.89036373 83.09765625 98.83203125 C83.07625901 106.55476484 83.04110151 114.27734153 83 122 C75.41 122 67.82 122 60 122 C59.98541748 120.21384277 59.97083496 118.42768555 59.95581055 116.58740234 C59.90406994 110.6720368 59.83875991 104.75690381 59.76428509 98.84178734 C59.71964371 95.25701541 59.68037434 91.67235549 59.65356445 88.08740234 C59.62746856 84.62476248 59.58702301 81.16255507 59.53681374 77.70018387 C59.51212068 75.74279832 59.50211639 73.78524523 59.49235535 71.82772827 C59.47256119 70.62693634 59.45276703 69.42614441 59.43237305 68.18896484 C59.41571846 66.61011002 59.41571846 66.61011002 59.39872742 64.99935913 C58.76144668 60.20552323 57.0330673 56.95558725 53.5 53.6875 C48.14860786 50.0753103 42.2424288 50.40469553 36 51 C30.65661526 53.57627478 27.07186938 57.24497832 24.91055298 62.80020142 C24.01052713 65.96300634 23.72563367 68.54498624 23.68115234 71.82177734 C23.66128265 72.94248627 23.64141296 74.06319519 23.62094116 75.21786499 C23.60361435 77.00881088 23.60361435 77.00881088 23.5859375 78.8359375 C23.56657135 80.07042633 23.5472052 81.30491516 23.5272522 82.57681274 C23.46759903 86.50947212 23.42112737 90.442161 23.375 94.375 C23.33787457 97.04560453 23.29775475 99.71615364 23.2578125 102.38671875 C23.16190891 108.92438021 23.07782462 115.46209934 23 122 C15.41 122 7.82 122 0 122 C0 81.74 0 41.48 0 0 Z " fill="#38444A" transform="translate(1203,435)"/>
<path d="M0 0 C7.59 0 15.18 0 23 0 C23.33 22.11 23.66 44.22 24 67 C28.47961633 62.52038367 32.41665505 58.40126641 36.1875 53.4375 C36.65978027 52.84759277 37.13206055 52.25768555 37.61865234 51.64990234 C40.12011936 48.52244919 42.40616014 45.398476 44.49609375 41.98046875 C47.1573119 37.92833135 49.6261464 34.29935263 54 32 C62.2139537 30.33832661 70.72343787 31.1262562 79 32 C75.28085934 37.06413601 71.43902727 41.95043285 67.3125 46.6875 C66.2705214 47.89426198 65.22886283 49.10130036 64.1875 50.30859375 C63.66285156 50.91558105 63.13820313 51.52256836 62.59765625 52.14794922 C59.98977089 55.17108772 57.39817194 58.20785635 54.8125 61.25 C54.34303955 61.79873779 53.8735791 62.34747559 53.38989258 62.9128418 C50.93898574 65.780841 50.93898574 65.780841 49 69 C50.2714109 71.28077528 51.6084282 73.3988181 53.0625 75.5625 C53.52696533 76.26834229 53.99143066 76.97418457 54.4699707 77.70141602 C57.66600056 82.54199058 60.90668547 87.35287 64.13825989 92.16975403 C66.1484566 95.16736827 68.1559504 98.16679028 70.16378784 101.16598511 C71.68249422 103.4300375 73.20730446 105.68989064 74.73266602 107.94946289 C75.68003538 109.36071559 76.62722728 110.77208744 77.57421875 112.18359375 C78.02060699 112.84124725 78.46699524 113.49890076 78.9269104 114.17648315 C82 118.77302124 82 118.77302124 82 121 C60.34256594 123.99484168 60.34256594 123.99484168 53.66992188 119.39306641 C49.64870048 115.04086755 47.00914261 109.89365876 44.37792969 104.62255859 C42.17656096 100.43278134 39.43460318 96.65694547 36.6875 92.8125 C35.77207494 91.48751411 34.85903249 90.16087646 33.94921875 88.83203125 C33.30597656 87.89746094 32.66273438 86.96289062 32 86 C30.85373678 86.97866338 29.70800212 87.95794587 28.5625 88.9375 C27.92441406 89.48277344 27.28632812 90.02804687 26.62890625 90.58984375 C24.16925291 92.52387845 24.16925291 92.52387845 23.79467773 95.68383789 C23.75802002 96.85164795 23.7213623 98.01945801 23.68359375 99.22265625 C23.64169922 100.48271484 23.59980469 101.74277344 23.55664062 103.04101562 C23.51682404 104.38150736 23.47711186 105.7220022 23.4375 107.0625 C23.39431958 108.40691523 23.35070544 109.7513166 23.30664062 111.09570312 C23.20014717 114.39700013 23.0995325 117.69848579 23 121 C15.41 121 7.82 121 0 121 C0 81.07 0 41.14 0 0 Z " fill="#364147" transform="translate(872,436)"/>
<path d="M0 0 C29.7 0 59.4 0 90 0 C90 6.6 90 13.2 90 20 C79.11 20 68.22 20 57 20 C57 53.33 57 86.66 57 121 C49.08 121 41.16 121 33 121 C33 87.67 33 54.34 33 20 C22.11 20 11.22 20 0 20 C0 13.4 0 6.8 0 0 Z " fill="#354148" transform="translate(523,436)"/>
<path d="M0 0 C8.76702892 7.3798408 13.73243456 14.89460735 15.625 26.25 C7.705 26.25 -0.215 26.25 -8.375 26.25 C-9.695 23.61 -11.015 20.97 -12.375 18.25 C-17.52145557 13.35459104 -21.79888227 12.94876656 -28.65234375 13.0390625 C-33.75928765 13.43472243 -36.43010379 15.34905245 -40.0625 18.8125 C-46.4316497 27.25675976 -46.25991968 38.1639268 -45.375 48.25 C-43.98787967 55.14431832 -41.66514186 59.90614903 -36.05859375 64.2265625 C-31.15111686 67.20976191 -24.76731495 67.06287547 -19.3046875 65.75390625 C-15.09810242 64.14229248 -12.76383734 62.00388726 -10.375 58.25 C-9.385 55.94 -8.395 53.63 -7.375 51.25 C0.215 51.25 7.805 51.25 15.625 51.25 C14.22988285 62.41093723 10.76556483 70.47184496 1.92578125 77.6328125 C-1.35104439 79.93604818 -4.64500466 81.79263238 -8.375 83.25 C-9.21160156 83.60578125 -10.04820312 83.9615625 -10.91015625 84.328125 C-15.83004006 85.6371358 -20.55491597 85.6184748 -25.625 85.625 C-26.61113281 85.64949219 -27.59726562 85.67398438 -28.61328125 85.69921875 C-39.97302375 85.74411892 -49.7611676 81.36779497 -58.09375 73.66015625 C-69.36205477 61.44324419 -70.19422399 46.70050154 -69.5703125 30.92333984 C-68.75668627 19.78683077 -63.11083698 10.58376539 -55.1875 3 C-40.49761701 -9.45284497 -16.00611768 -11.20122193 0 0 Z " fill="#354047" transform="translate(841.375,472.75)"/>
<path d="M0 0 C7.92 0 15.84 0 24 0 C24 33 24 66 24 100 C41.16 100 58.32 100 76 100 C76 106.93 76 113.86 76 121 C50.92 121 25.84 121 0 121 C0 81.07 0 41.14 0 0 Z " fill="#3C474E" transform="translate(969,436)"/>
<path d="M0 0 C7.59 0 15.18 0 23 0 C23 7.26 23 14.52 23 22 C28.61 22 34.22 22 40 22 C40 27.61 40 33.22 40 39 C34.39 39 28.78 39 23 39 C23.06874012 46.20859738 23.15664082 53.41660711 23.26245117 60.62475586 C23.29574326 63.07781469 23.3237617 65.53095091 23.34643555 67.98413086 C23.37990229 71.50668378 23.43221515 75.02852465 23.48828125 78.55078125 C23.49467117 79.65086014 23.5010611 80.75093903 23.50764465 81.88435364 C23.53733589 83.41560127 23.53733589 83.41560127 23.56762695 84.9777832 C23.58428154 86.32680473 23.58428154 86.32680473 23.60127258 87.70307922 C24.08090219 90.46604754 24.75341208 91.36038373 27 93 C30.19245998 93.58092992 30.19245998 93.58092992 33.6875 93.6875 C35.770625 93.790625 37.85375 93.89375 40 94 C40 99.94 40 105.88 40 112 C30.78322436 114.30419391 18.65779204 114.60279486 9.98046875 110.31640625 C3.13408918 105.76565691 0.63947289 99.86682487 -1 92 C-1.36913918 87.80152734 -1.35184552 83.64166484 -1.29296875 79.4296875 C-1.28872391 78.26744659 -1.28447906 77.10520569 -1.28010559 75.90774536 C-1.26343926 72.22991847 -1.22580894 68.55265864 -1.1875 64.875 C-1.17243762 62.36719547 -1.15875195 59.85938226 -1.14648438 57.3515625 C-1.11357513 51.23415964 -1.06187619 45.11717565 -1 39 C-5.29 39 -9.58 39 -14 39 C-14 33.72 -14 28.44 -14 23 C-9.38 23 -4.76 23 0 23 C0 15.41 0 7.82 0 0 Z " fill="#39444A" transform="translate(1310,445)"/>
<path d="M0 0 C3.21681192 2.53958836 4.73332582 4.59996054 5.5 8.625 C3.95259572 19.06997889 -11.34775823 28.92646263 -19.3125 35.3125 C-25.350328 40.16901382 -30.93221609 45.47012616 -36.56640625 50.78125 C-39.61580628 53.65281616 -42.7309367 56.42921704 -45.91015625 59.15625 C-47.67558137 60.71378394 -49.40218417 62.29805677 -51.12109375 63.90625 C-51.68747559 64.43524902 -52.25385742 64.96424805 -52.83740234 65.50927734 C-53.95172242 66.55294707 -55.0629572 67.59992522 -56.17041016 68.65087891 C-57.75437315 70.13324945 -59.36396435 71.57536495 -61 73 C-61.83120361 73.73234863 -61.83120361 73.73234863 -62.67919922 74.47949219 C-66.37319684 77.45436928 -69.26804761 78.79707558 -74.06689453 78.45800781 C-77.47896328 77.64959142 -79.87136002 75.63191992 -82.4375 73.375 C-83.0245874 72.88717041 -83.6116748 72.39934082 -84.21655273 71.89672852 C-85.48678057 70.83884124 -86.75000511 69.77249977 -88.00683594 68.69873047 C-91.48728286 65.7324211 -95.03060267 62.84215647 -98.5625 59.9375 C-99.28276367 59.34211426 -100.00302734 58.74672852 -100.74511719 58.13330078 C-108.23648979 51.94824689 -115.76835118 45.77252324 -123.87890625 40.41015625 C-124.52448486 39.97541992 -125.17006348 39.54068359 -125.83520508 39.09277344 C-127.07628223 38.26296232 -128.32961003 37.45107717 -129.59643555 36.66113281 C-132.85814507 34.471362 -133.93089702 33.24492869 -135.01171875 29.4140625 C-135 26 -135 26 -133.0625 22.5625 C-129.85012331 19.87459297 -128.37284127 19.38580984 -124.25024414 19.53393555 C-119.71929167 20.47237411 -116.31749777 23.38648592 -112.6875 26.125 C-111.82592285 26.75156494 -110.9643457 27.37812988 -110.07666016 28.02368164 C-107.37071334 29.99784546 -104.68493591 31.9973858 -102 34 C-100.27583697 35.26842011 -98.55060051 36.5353826 -96.82421875 37.80078125 C-84.32253173 46.98233612 -84.32253173 46.98233612 -79.765625 50.46875 C-78.89421875 51.1184375 -78.0228125 51.768125 -77.125 52.4375 C-76.42632812 52.97246094 -75.72765625 53.50742187 -75.0078125 54.05859375 C-73.02033395 55.15307719 -73.02033395 55.15307719 -70.6875 55.06640625 C-66.60015127 53.44453677 -63.96870779 50.5621071 -60.875 47.5 C-59.53117366 46.20570363 -58.18480917 44.91403744 -56.8359375 43.625 C-56.17948242 42.99722656 -55.52302734 42.36945313 -54.84667969 41.72265625 C-52.4906856 39.52489127 -50.02421647 37.50118062 -47.5 35.5 C-41.51657579 30.72399323 -36.01224279 25.47720585 -30.4453125 20.23046875 C-27.33026116 17.29722649 -24.15535197 14.44888488 -20.91015625 11.66015625 C-17.58783508 8.7726583 -14.35162998 5.78864038 -11.1015625 2.8203125 C-7.42523422 -0.36401646 -4.83242657 -0.4165885 0 0 Z " fill="#F9F6F2" transform="translate(402,435)"/>
<path d="M0 0 C0 7.26 0 14.52 0 22 C-2.10375 21.896875 -4.2075 21.79375 -6.375 21.6875 C-13.31778004 21.70856 -18.47418974 22.6590409 -24 27 C-30.78278057 34.66470239 -31.30503006 43.62644981 -31.4140625 53.40234375 C-31.43342865 54.48004532 -31.4527948 55.55774689 -31.4727478 56.66810608 C-31.53225755 60.0911583 -31.57881456 63.51424466 -31.625 66.9375 C-31.66320608 69.26629025 -31.70225933 71.59506676 -31.7421875 73.92382812 C-31.83952103 79.61581167 -31.91931781 85.30765889 -32 91 C-39.59 91 -47.18 91 -55 91 C-55 61.63 -55 32.26 -55 2 C-47.74 2 -40.48 2 -33 2 C-32.67 6.29 -32.34 10.58 -32 15 C-31.360625 13.96875 -30.72125 12.9375 -30.0625 11.875 C-22.50648951 1.29229212 -12.17008115 -0.27044625 0 0 Z " fill="#37434A" transform="translate(670,466)"/>
<path d="M0 0 C7.59 0 15.18 0 23 0 C23 29.37 23 58.74 23 89 C15.41 89 7.82 89 0 89 C0 59.63 0 30.26 0 0 Z " fill="#39454B" transform="translate(1060,468)"/>
<path d="M0 0 C6.44018963 3.76665488 9.65280239 9.31783116 11.625 16.375 C12.03979525 19.36833337 12.10337474 22.29356281 12.0625 25.3125 C12.05420166 26.10301758 12.04590332 26.89353516 12.03735352 27.70800781 C11.83614485 34.64791649 10.75343246 39.89812228 6.01171875 45.16796875 C0.89416511 49.94510862 -4.20216547 51.85157875 -11.29296875 51.62109375 C-16.62479471 50.99087792 -20.29787157 49.40425606 -24.1875 45.6875 C-30.12911712 36.69019408 -31.72799794 26.27513202 -29.9140625 15.68359375 C-28.03865729 8.45776778 -24.71852816 3.78545053 -18.6875 -0.5625 C-12.45894807 -2.56033741 -6.03548092 -2.73196959 0 0 Z " fill="#FBF8F5" transform="translate(1149.375,485.625)"/>
<path d="M0 0 C0.34382391 5.73039855 0.45096102 10.14708607 -3 15 C-8.72027272 20.36522131 -14.85145766 23.49931386 -22.625 24.4375 C-26.75021092 23.90275044 -28.82680557 22.65662789 -32 20 C-34.58536545 16.59201828 -34.43781946 13.1592849 -34 9 C-31.40636434 4.43520124 -27.94933457 2.40987021 -23 1 C-15.4692695 -0.54514988 -7.64286801 -0.09784611 0 0 Z " fill="#FAF7F4" transform="translate(734,518)"/>
<path d="M0 0 C7.59 0 15.18 0 23 0 C23 33 23 66 23 100 C22.67 100 22.34 100 22 100 C22 67.33 22 34.66 22 1 C15.07 1 8.14 1 1 1 C1 39.94 1 78.88 1 119 C25.09 119 49.18 119 74 119 C74 113.39 74 107.78 74 102 C57.5 102 41 102 24 102 C24 101.34 24 100.68 24 100 C41.16 100 58.32 100 76 100 C76 106.93 76 113.86 76 121 C50.92 121 25.84 121 0 121 C0 81.07 0 41.14 0 0 Z " fill="#1A232A" transform="translate(969,436)"/>
<path d="M0 0 C3.56921121 1.99875828 5.76455075 4.0690251 7 8 C7.4540225 12.99424753 7.19207216 16.06311101 4 20 C-0.07498342 23.58986635 -3.42463046 24.75244795 -8.74609375 24.52734375 C-12.72152839 23.59721606 -15.45465017 21.11350827 -18 18 C-19.20643566 14.38069302 -19.32268559 11.80768995 -19 8 C-14.34615848 -0.50529658 -9.08974674 -1.00724221 0 0 Z " fill="#343F46" transform="translate(1077,433)"/>
<path d="M0 0 C7.59 0 15.18 0 23 0 C23 14.85 23 29.7 23 45 C22.67 45 22.34 45 22 45 C22 30.81 22 16.62 22 2 C15.4 2 8.8 2 2 2 C2 40.94 2 79.88 2 120 C8.6 120 15.2 120 22 120 C21.98952637 118.34959717 21.97905273 116.69919434 21.96826172 114.9987793 C21.93211955 108.88796143 21.90912054 102.77715306 21.89013672 96.66625977 C21.88006595 94.0191082 21.86640864 91.37196779 21.84912109 88.72485352 C21.82492028 84.92461395 21.81352772 81.12452119 21.8046875 77.32421875 C21.79436493 76.13664474 21.78404236 74.94907074 21.77340698 73.72550964 C21.77325592 72.62459488 21.77310486 71.52368011 21.77294922 70.3894043 C21.768508 69.41899704 21.76406677 68.44858978 21.75949097 67.44877625 C22 65 22 65 24 62 C23.67 81.8 23.34 101.6 23 122 C15.41 122 7.82 122 0 122 C0 81.74 0 41.48 0 0 Z " fill="#232D34" transform="translate(1203,435)"/>
<path d="M0 0 C1.3602832 -0.03673828 1.3602832 -0.03673828 2.74804688 -0.07421875 C9.3829924 -0.10351211 9.3829924 -0.10351211 12.6640625 2.20703125 C14.55523499 5.13887687 14.57217537 6.95289397 14.0625 10.375 C12.41575211 12.62041488 11.51690383 13.29560406 8.75 13.77905273 C5.853222 13.81089414 2.9594594 13.83282306 0.0625 13.8125 C-0.948125 13.83248047 -1.95875 13.85246094 -3 13.87304688 C-3.969375 13.87240234 -4.93875 13.87175781 -5.9375 13.87109375 C-7.2678125 13.87387329 -7.2678125 13.87387329 -8.625 13.87670898 C-10.9375 13.375 -10.9375 13.375 -12.7578125 11.57055664 C-14.54266736 8.24870239 -13.86063299 5.9356558 -12.9375 2.375 C-8.68062556 -0.46291629 -5.00612918 0.00708582 0 0 Z " fill="#FAF9F5" transform="translate(227.9375,491.625)"/>
<path d="M0 0 C2.2247847 1.60846354 2.91213938 2.49737094 3.38818359 5.22070312 C3.39156738 6.06568359 3.39495117 6.91066406 3.3984375 7.78125 C3.40230469 8.70550781 3.40617187 9.62976563 3.41015625 10.58203125 C3.39855469 11.54496094 3.38695312 12.50789062 3.375 13.5 C3.38660156 14.46292969 3.39820313 15.42585937 3.41015625 16.41796875 C3.40628906 17.34222656 3.40242188 18.26648438 3.3984375 19.21875 C3.39505371 20.06373047 3.39166992 20.90871094 3.38818359 21.77929688 C2.91213938 24.50262906 2.2247847 25.39153646 0 27 C-6.09651375 27.6531979 -6.09651375 27.6531979 -8.69384766 25.77539062 C-10.38991294 23.47000993 -10.38704108 22.06459898 -10.3984375 19.21875 C-10.40230469 18.29449219 -10.40617187 17.37023437 -10.41015625 16.41796875 C-10.39855469 15.45503906 -10.38695312 14.49210938 -10.375 13.5 C-10.38660156 12.53707031 -10.39820313 11.57414063 -10.41015625 10.58203125 C-10.40628906 9.65777344 -10.40242188 8.73351562 -10.3984375 7.78125 C-10.39505371 6.93626953 -10.39166992 6.09128906 -10.38818359 5.22070312 C-9.36777905 -0.61678099 -5.15656435 -0.55248904 0 0 Z " fill="#FBF9F5" transform="translate(334,587)"/>
<path d="M0 0 C7.59 0 15.18 0 23 0 C23 29.37 23 58.74 23 89 C15.41 89 7.82 89 0 89 C0 59.63 0 30.26 0 0 Z M1 1 C1 29.38 1 57.76 1 87 C7.6 87 14.2 87 21 87 C21 58.62 21 30.24 21 1 C14.4 1 7.8 1 1 1 Z " fill="#1B252C" transform="translate(1060,468)"/>
<path d="M0 0 C0.92425781 -0.00386719 1.84851563 -0.00773437 2.80078125 -0.01171875 C4.24517578 0.00568359 4.24517578 0.00568359 5.71875 0.0234375 C6.68167969 0.01183594 7.64460938 0.00023437 8.63671875 -0.01171875 C9.56097656 -0.00785156 10.48523438 -0.00398438 11.4375 0 C12.28248047 0.00338379 13.12746094 0.00676758 13.99804688 0.01025391 C16.72188938 0.48638733 17.60690784 1.17606848 19.21875 3.3984375 C19.65625 6.8984375 19.65625 6.8984375 19.21875 10.3984375 C17.41901245 12.52673749 15.93281211 13.29989914 13.17358398 13.68066406 C10.68139305 13.80332799 8.21361677 13.80730447 5.71875 13.7734375 C4.86410156 13.78503906 4.00945312 13.79664063 3.12890625 13.80859375 C-0.49661225 13.79162564 -3.08369112 13.75305647 -6.34765625 12.09375 C-7.78125 10.3984375 -7.78125 10.3984375 -8.21875 6.8984375 C-7.78125 3.3984375 -7.78125 3.3984375 -6.55273438 1.70458984 C-4.25010769 0.0068152 -2.8445311 0.01139114 0 0 Z " fill="#FAF7F3" transform="translate(425.78125,491.6015625)"/>
<path d="M0 0 C2.09420961 1.55259847 2.88946781 2.4470719 3.40405273 5.02124023 C3.43599379 7.49442844 3.45781921 9.96409777 3.4375 12.4375 C3.45748047 13.29666016 3.47746094 14.15582031 3.49804688 15.04101562 C3.49320173 21.28640878 3.49320173 21.28640878 1.19921875 24.60546875 C-1 26 -1 26 -4.625 25.875 C-8 25 -8 25 -10 23 C-10.44869661 19.70756396 -10.32408242 16.38202257 -10.3125 13.0625 C-10.32861328 12.14275391 -10.34472656 11.22300781 -10.36132812 10.27539062 C-10.36197266 9.39173828 -10.36261719 8.50808594 -10.36328125 7.59765625 C-10.36626221 6.78820557 -10.36924316 5.97875488 -10.37231445 5.14477539 C-9.36768491 -0.64254953 -5.07083759 -0.54330403 0 0 Z " fill="#FAFBF8" transform="translate(334,387)"/>
<path d="M0 0 C7.26 0 14.52 0 22 0 C22 4.62 22 9.24 22 14 C21.67 14 21.34 14 21 14 C21 9.71 21 5.42 21 1 C14.4 1 7.8 1 1 1 C1 29.38 1 57.76 1 87 C7.6 87 14.2 87 21 87 C20.96519531 82.50052734 20.96519531 82.50052734 20.9296875 77.91015625 C20.91405685 74.98104271 20.90193156 72.05193394 20.89013672 69.12280273 C20.88012517 67.09869278 20.8665119 65.07459711 20.84912109 63.05053711 C20.82465859 60.12870744 20.81346816 57.20707022 20.8046875 54.28515625 C20.79436493 53.39103531 20.78404236 52.49691437 20.77340698 51.57569885 C20.77238528 45.75766636 21.55568863 40.63981102 23 35 C23.33 35 23.66 35 24 35 C23.67 52.82 23.34 70.64 23 89 C15.41 89 7.82 89 0 89 C0 59.63 0 30.26 0 0 Z " fill="#18232A" transform="translate(615,468)"/>
<path d="M0 0 C2.89433857 2.89433857 2.9388452 5.65168459 3.12025452 9.65132141 C3.11803391 10.59952255 3.11581329 11.54772369 3.11352539 12.5246582 C3.11344986 13.60540115 3.11337433 14.6861441 3.11329651 15.79963684 C3.10813522 16.9550145 3.10297394 18.11039215 3.09765625 19.30078125 C3.0962413 20.49229294 3.09482635 21.68380463 3.09336853 22.91142273 C3.08777728 26.71180751 3.07522632 30.51213307 3.0625 34.3125 C3.05748387 36.89127519 3.05292116 39.4700513 3.04882812 42.04882812 C3.0378107 48.36590818 3.02055201 54.68294406 3 61 C9.6 61 16.2 61 23 61 C23 41.2 23 21.4 23 1 C23.33 1 23.66 1 24 1 C24 21.46 24 41.92 24 63 C16.41 63 8.82 63 1 63 C0.67 42.21 0.34 21.42 0 0 Z " fill="#1E282F" transform="translate(1262,494)"/>
<path d="M0 0 C7.59 0 15.18 0 23 0 C23 14.85 23 29.7 23 45 C22.67 45 22.34 45 22 45 C22 30.81 22 16.62 22 2 C15.4 2 8.8 2 2 2 C2 11.24 2 20.48 2 30 C1.67 30 1.34 30 1 30 C0.67 20.1 0.34 10.2 0 0 Z " fill="#182228" transform="translate(1203,435)"/>
<path d="M0 0 C0.33 0 0.66 0 1 0 C1 9.57 1 19.14 1 29 C-6.59 29 -14.18 29 -22 29 C-21.67 28.34 -21.34 27.68 -21 27 C-14.4 27 -7.8 27 -1 27 C-1.01160156 25.13472656 -1.02320313 23.26945313 -1.03515625 21.34765625 C-1.04453225 18.91927183 -1.05363265 16.49088633 -1.0625 14.0625 C-1.07087891 12.83080078 -1.07925781 11.59910156 -1.08789062 10.33007812 C-1.09272461 8.5753418 -1.09272461 8.5753418 -1.09765625 6.78515625 C-1.10551147 5.15912476 -1.10551147 5.15912476 -1.11352539 3.50024414 C-1 1 -1 1 0 0 Z " fill="#303B41" transform="translate(894,528)"/>
<path d="M0 0 C0.66 0.33 1.32 0.66 2 1 C-7.765625 10.765625 -7.765625 10.765625 -9.45898438 12.45117188 C-10.75730967 13.7560793 -12.03017885 15.086243 -13.296875 16.421875 C-15 18 -15 18 -17 18 C-13.70998018 10.4847263 -6.1721195 5.14343291 0 0 Z " fill="#1A85FE" transform="translate(367,483)"/>
<path d="M0 0 C4.62 0 9.24 0 14 0 C14 2.97 14 5.94 14 9 C13.34 8.34 12.68 7.68 12 7 C12 5.35 12 3.7 12 2 C8.04 1.67 4.08 1.34 0 1 C0 0.67 0 0.34 0 0 Z " fill="#EDECEC" transform="translate(720,518)"/>
<path d="M0 0 C0.33 0.66 0.66 1.32 1 2 C-2.63 2.66 -6.26 3.32 -10 4 C-10 3.34 -10 2.68 -10 2 C-6.5980513 -0.09350689 -3.94727588 -0.17942163 0 0 Z " fill="#29353D" transform="translate(660,467)"/>
</svg>
